<svg xmlns="http://www.w3.org/2000/svg" class="prefix__icon prefix__icon-tabler prefix__icon-tabler-brand-svelte"
  width="250" height="250" viewBox="0 0 24 24" stroke="rgba(1, 1, 1, 1)" fill="none" stroke-linecap="round"
  stroke-linejoin="round">
  <circle cx="50%" cy="50%" r="50%" fill="rgba(255, 255, 255, 1)" stroke="none" />
  <path d="M2.4 2.4h19.2v19.2H2.4z" stroke="none" />
  <path
    d="M14.4 8.8l-4 2.4.657-.396c1.488-.92 3.53-.392 4.459 1.082a3.128 3.128 0 01-1.011 4.336l-4.043 2.5c-1.488.921-3.45.473-4.379-1a3.128 3.128 0 011.01-4.336l.209-.128"
    stroke-width=".8" />
  <path
    d="M8.8 16l4-2.4-.658.397c-1.488.92-3.528.393-4.459-1.081A3.128 3.128 0 018.694 8.58l4.044-2.502a3.198 3.198 0 014.379 1.002 3.128 3.128 0 01-1.011 4.336l-.208.128"
    stroke-width=".8" />
</svg>
